HIERARCHY
ROOT hip
{
  OFFSET 0 0 0
  CHANNELS 6 Xposition Yposition Zposition Zrotation Yrotation Xrotation
  JOINT abdomen
  {
    OFFSET 0 20.6881 -0.73152
    CHANNELS 3 Zrotation Xrotation Yrotation
    JOINT chest
    {
      OFFSET 0 11.7043 -0.48768
      CHANNELS 3 Zrotation Xrotation Yrotation
      JOINT neck
      {
        OFFSET 0 22.1894 -2.19456
        CHANNELS 3 Zrotation Xrotation Yrotation
        JOINT head
        {
          OFFSET -0.24384 7.07133 1.2192
          CHANNELS 3 Zrotation Xrotation Yrotation
          JOINT leftEye
          {
            OFFSET 4.14528 8.04674 8.04672
            CHANNELS 3 Zrotation Xrotation Yrotation
            End Site
            {
              OFFSET 1 0 0
            }
          }
          JOINT rightEye
          {
            OFFSET -3.6576 8.04674 8.04672
            CHANNELS 3 Zrotation Xrotation Yrotation
            End Site
            {
              OFFSET 1 0 0
            }
          }
        }
      }
      JOINT rCollar
      {
        OFFSET -2.68224 19.2634 -4.8768
        CHANNELS 3 Zrotation Xrotation Yrotation
        JOINT rShldr
        {
          OFFSET -8.77824 -1.95073 1.46304
          CHANNELS 3 Zrotation Xrotation Yrotation
          JOINT rForeArm
          {
            OFFSET -28.1742 -1.7115 0.48768
            CHANNELS 3 Zrotation Xrotation Yrotation
            JOINT rHand
            {
              OFFSET -22.5879 0.773209 7.07136
              CHANNELS 3 Zrotation Xrotation Yrotation
              JOINT rThumb1
              {
                OFFSET -1.2192 -0.487915 3.41376
                CHANNELS 3 Zrotation Xrotation Yrotation
                JOINT rThumb2
                {
                  OFFSET -3.37035 -0.52449 3.41376
                  CHANNELS 3 Zrotation Xrotation Yrotation
                  End Site
                  {
                    OFFSET -1.78271 -1.18214 1.43049
                  }
                }
              }
              JOINT rIndex1
              {
                OFFSET -7.75947 0.938293 5.60832
                CHANNELS 3 Zrotation Xrotation Yrotation
                JOINT rIndex2
                {
                  OFFSET -2.54057 -0.884171 1.56538
                  CHANNELS 3 Zrotation Xrotation Yrotation
                  End Site
                  {
                    OFFSET -1.62519 -0.234802 1.16502
                  }
                }
              }
              JOINT rMid1
              {
                OFFSET -8.24714 1.18213 3.41376
                CHANNELS 3 Zrotation Xrotation Yrotation
                JOINT rMid2
                {
                  OFFSET -3.10165 -0.590103 1.0647
                  CHANNELS 3 Zrotation Xrotation Yrotation
                  End Site
                  {
                    OFFSET -2.48547 -0.328903 0.83742
                  }
                }
              }
              JOINT rRing1
              {
                OFFSET -8.82822 0.546677 1.51678
                CHANNELS 3 Zrotation Xrotation Yrotation
                JOINT rRing2
                {
                  OFFSET -2.60934 -0.819778 -0.0198488
                  CHANNELS 3 Zrotation Xrotation Yrotation
                  End Site
                  {
                    OFFSET -2.33842 -0.294052 0.168128
                  }
                }
              }
              JOINT rPinky1
              {
                OFFSET -8.27202 -0.0477905 -0.4584
                CHANNELS 3 Zrotation Xrotation Yrotation
                JOINT rPinky2
                {
                  OFFSET -1.82734 -0.647385 -0.700984
                  CHANNELS 3 Zrotation Xrotation Yrotation
                  End Site
                  {
                    OFFSET -1.69225 -0.51767 -0.607171
                  }
                }
              }
            }
          }
        }
      }
      JOINT lCollar
      {
        OFFSET 2.68224 19.2634 -4.8768
        CHANNELS 3 Zrotation Xrotation Yrotation
        JOINT lShldr
        {
          OFFSET 8.77824 -1.95073 1.46304
          CHANNELS 3 Zrotation Xrotation Yrotation
          JOINT lForeArm
          {
            OFFSET 28.1742 -1.7115 0.48768
            CHANNELS 3 Zrotation Xrotation Yrotation
            JOINT lHand
            {
              OFFSET 22.5879 0.773209 7.07136
              CHANNELS 3 Zrotation Xrotation Yrotation
              JOINT lThumb1
              {
                OFFSET 1.2192 -0.487915 3.41376
                CHANNELS 3 Zrotation Xrotation Yrotation
                JOINT lThumb2
                {
                  OFFSET 3.37035 -0.52449 3.41376
                  CHANNELS 3 Zrotation Xrotation Yrotation
                  End Site
                  {
                    OFFSET 1.78271 -1.18214 1.43049
                  }
                }
              }
              JOINT lIndex1
              {
                OFFSET 7.75947 0.938293 5.60832
                CHANNELS 3 Zrotation Xrotation Yrotation
                JOINT lIndex2
                {
                  OFFSET 2.54057 -0.884171 1.56538
                  CHANNELS 3 Zrotation Xrotation Yrotation
                  End Site
                  {
                    OFFSET 1.62519 -0.234802 1.16502
                  }
                }
              }
              JOINT lMid1
              {
                OFFSET 8.24714 1.18213 3.41376
                CHANNELS 3 Zrotation Xrotation Yrotation
                JOINT lMid2
                {
                  OFFSET 3.10165 -0.590103 1.0647
                  CHANNELS 3 Zrotation Xrotation Yrotation
                  End Site
                  {
                    OFFSET 2.48547 -0.328903 0.83742
                  }
                }
              }
              JOINT lRing1
              {
                OFFSET 8.82822 0.546677 1.51678
                CHANNELS 3 Zrotation Xrotation Yrotation
                JOINT lRing2
                {
                  OFFSET 2.60934 -0.819778 -0.0198488
                  CHANNELS 3 Zrotation Xrotation Yrotation
                  End Site
                  {
                    OFFSET 2.33842 -0.294052 0.168128
                  }
                }
              }
              JOINT lPinky1
              {
                OFFSET 8.27202 -0.0477905 -0.4584
                CHANNELS 3 Zrotation Xrotation Yrotation
                JOINT lPinky2
                {
                  OFFSET 1.82734 -0.647385 -0.700984
                  CHANNELS 3 Zrotation Xrotation Yrotation
                  End Site
                  {
                    OFFSET 1.69225 -0.51767 -0.607171
                  }
                }
              }
            }
          }
        }
      }
    }
  }
  JOINT rButtock
  {
    OFFSET -8.77824 4.35084 1.2192
    CHANNELS 3 Zrotation Xrotation Yrotation
    JOINT rThigh
    {
      OFFSET 0 -1.70687 -2.19456
      CHANNELS 3 Zrotation Xrotation Yrotation
      JOINT rShin
      {
        OFFSET 0 -36.8199 0.73152
        CHANNELS 3 Zrotation Xrotation Yrotation
        JOINT rFoot
        {
          OFFSET 0.73152 -45.1104 -5.12064
          CHANNELS 3 Zrotation Xrotation Yrotation
          End Site
          {
            OFFSET -1.1221 -3.69964 12.103
          }
        }
      }
    }
  }
  JOINT lButtock
  {
    OFFSET 8.77824 4.35084 1.2192
    CHANNELS 3 Zrotation Xrotation Yrotation
    JOINT lThigh
    {
      OFFSET 0 -1.70687 -2.19456
      CHANNELS 3 Zrotation Xrotation Yrotation
      JOINT lShin
      {
        OFFSET 0 -36.8199 0.73152
        CHANNELS 3 Zrotation Xrotation Yrotation
        JOINT lFoot
        {
          OFFSET -0.73152 -45.1104 -5.12064
          CHANNELS 3 Zrotation Xrotation Yrotation
          End Site
          {
            OFFSET 1.1221 -3.69964 12.103
          }
        }
      }
    }
  }
}
MOTION
Frames:	9
Frame Time:	0.03333
0.0 0.0 0.0 0.0 0.0 0.0 0.0 0.0 0.0 0.0 0.0 0.0 0.0 0.0 0.0 0.0 0.0 0.0 0.0 0.0 0.0 0.0 0.0 0.0 0.0 0.0 0.0 0.0 0.0 0.0 0.0 0.0 0.0 0.0 0.0 0.0 0.0 0.0 0.0 0.0 0.0 0.0 0.0 0.0 0.0 0.0 0.0 0.0 0.0 0.0 0.0 0.0 0.0 0.0 0.0 0.0 0.0 0.0 0.0 0.0 0.0 0.0 0.0 0.0 0.0 0.0 0.0 0.0 0.0 0.0 0.0 0.0 0.0 0.0 0.0 0.0 0.0 0.0 0.0 0.0 0.0 0.0 0.0 0.0 0.0 0.0 0.0 0.0 0.0 0.0 0.0 0.0 0.0 0.0 0.0 0.0 0.0 0.0 0.0 0.0 0.0 0.0 0.0 0.0 0.0 0.0 0.0 0.0 0.0 0.0 0.0 0.0 0.0 0.0 0.0 0.0 0.0 0.0 0.0 0.0 0.0 0.0 0.0 0.0 0.0 0.0 0.0 0.0 0.0 0.0 0.0 0.0
1.8627999999999998 84.83500000000001 -1.3212 49.3578 19.640747 35.708116 -24.868236 26.247065 81.674578 -10.884814 -2.116764 -60.776874 9.780713 12.088431 56.0195 -29.194916 10.333749 -29.982591 -0.000293 -0.0 0.002896 -0.000293 -0.0 0.002896 -155.429819 -3.031998 161.736202 -61.011013 -62.061413 -55.035841 179.754141 -80.957221 -95.094037 -8.685623 28.462015 1.435084 -176.613412 -14.228673 89.6896 -33.697702 -28.502228 1.371065 -143.106901 -2.448765 117.539136 -17.328866 39.350791 6.084185 -8.934686 21.924667 6.039975 169.95819 -62.472102 134.645962 -145.119672 0.216636 -179.19528 -157.118977 53.973939 174.303641 -63.389975 -51.547816 -61.981564 -163.792359 65.401915 -147.993409 -4.043117 -38.778625 7.469087 -71.510792 31.851096 40.717725 12.576349 -44.59509 -57.389986 5.223001 -9.183307 3.263644 172.520829 -10.199341 -89.935711 -173.765022 -22.026224 -96.956343 -83.08537 -74.943798 -34.991299 -142.787866 -64.797402 -79.001754 153.78107 12.518455 -139.181836 -8.439445 -15.484371 1.010895 0.306895 11.916063 -3.791054 -5.830959 30.709921 -4.784701 -50.64894 86.98846 11.041474 155.803056 36.10434 146.983457 -0.003928 -0.000338 -0.001578 -52.1675 -24.900901 -144.930011 -13.831283 -21.67677 79.28452 111.676968 -3.033316 -19.401904 -1.4e-05 -0.001917 -0.000135 129.15757 -29.931547 95.274106 -164.980964 73.318491 74.390616 26.731289 -32.798391 114.971804
1.9934 83.5309 -1.2296 47.221274 17.244455 35.092311 -20.424088 26.580048 -40.719196 5.667932 -10.861453 61.146708 10.936032 13.221549 63.337119 -29.404081 13.092158 -35.823653 0.003246 0.0 0.001835 0.001347 0.0 0.002348 4.223215 -44.005959 -8.49716 41.223929 15.803372 12.32841 -120.933985 -37.65565 92.206899 132.496967 -63.175259 114.887397 -159.190045 3.049494 88.706669 -25.059882 -31.782451 11.555085 -138.555877 4.804589 114.904185 -11.111649 32.086835 1.168715 -152.60823 15.299772 138.360136 -164.38818 -8.344336 143.320633 0.004629 1.149256 0.359191 -156.594945 -41.73044 176.875845 -44.01361 -47.767963 -42.803374 -173.703541 77.745202 -142.353237 -2.734327 -20.880564 4.164985 -71.52867 28.101952 25.395512 10.915457 -51.641826 -58.052056 5.935466 -6.897003 3.120946 4.779947 4.644533 -0.923813 -41.273618 -59.165011 13.974436 95.288759 39.692625 -80.294154 68.42815 53.201128 -47.626433 24.730083 43.696264 -19.444805 30.748053 53.125918 -25.831237 144.147478 -17.096383 173.559513 -11.45458 66.790961 -0.795098 131.103013 -20.395215 128.673817 156.686776 42.643027 146.773172 -179.993562 75.748882 -0.006158 128.740285 21.41816 85.455896 24.209361 16.695129 24.050119 -4.21485 38.595455 -82.522285 -0.000246 0.002136 -0.00087 132.550508 -25.198519 -167.426978 125.977939 -4.519278 60.686672 -77.541838 -23.438932 -176.623958
1.8372 81.9951 -1.0382 43.635665 16.125968 33.851802 -20.835804 25.595664 47.162342 -8.232128 -7.745799 -26.387248 -7.325923 18.203759 -72.159711 22.873687 -12.571204 100.501651 0.000382 -0.0 -0.000525 -0.00172 -0.0 0.000151 -155.322869 -73.068794 179.486139 29.927268 5.114601 -21.475237 38.948708 -72.246602 -91.506461 170.535507 -15.935929 144.033866 -1.272778 1.251672 0.209036 53.108817 -72.901547 -10.259027 147.188373 -73.159422 92.070378 -159.63373 -20.826134 116.899333 46.036975 -75.942321 19.230576 -164.837992 -8.916638 143.566486 -145.121594 0.545285 -179.300313 10.376428 2.290832 -8.709821 -10.462412 -21.314557 -9.911396 -134.206195 -19.948629 -132.551132 151.193574 17.848315 -156.45684 40.064896 -14.365341 -34.982058 -12.147924 -26.87573 100.583626 175.881219 0.522028 -142.530517 165.697955 -3.369956 -89.690576 -170.400593 -24.723613 -93.663404 61.382114 42.787739 -49.868097 -0.746267 8.511488 1.834983 -0.82142 -2.424948 0.443985 -176.320975 -55.14673 -139.179302 0.071877 -3.923617 1.235977 -2.147647 48.927019 -10.414995 151.903726 36.168153 147.367917 100.248793 -48.381748 98.724787 -179.996891 75.74927 -0.002187 135.640988 20.276295 -53.499624 -41.510516 2.433328 -130.073951 65.254567 30.667821 -164.635406 -0.000688 0.000372 -0.000766 134.573582 -18.17429 -39.110261 -139.573636 -32.76725 140.222109 -138.21539 53.15356 51.336985
1.7046 80.3901 -0.8423999999999999 40.047396 15.18547 32.63336 -12.956847 22.66043 -110.263575 9.623224 -1.748719 130.292991 -0.761077 9.962113 -13.478449 -6.481554 -19.125051 39.558021 0.001174 -0.0 -0.000607 0.001174 -0.0 -0.000607 -159.164922 -43.950465 169.560759 -146.4973 -29.127251 -147.874284 31.138822 -57.971689 116.893123 -14.659132 41.060657 4.093072 -4.060651 3.956414 0.75941 13.239275 -17.014735 -7.03968 -152.363009 -19.032908 121.443407 -77.940817 57.534156 60.551495 -152.98782 14.418905 138.628002 -163.318254 -5.098428 143.012387 -145.111645 -0.755591 -178.891606 -153.943507 -13.791218 -177.312616 8.141791 25.593859 7.17854 -17.623972 -34.832924 -18.139516 -4.238741 -52.157311 10.275891 -4.152608 -25.662904 55.788778 -22.242914 50.379006 -58.423358 12.885204 15.945902 0.129946 -20.924899 -20.459142 -0.583369 130.188564 -9.9012 -116.235113 6.083115 9.173945 -3.75683 169.685201 -23.358778 -109.239767 164.147532 -17.705245 -144.594079 174.079904 -35.830464 -143.290799 135.347182 49.957352 -159.20954 2.023449 -52.50483 18.65297 0.500071 -1.28898 0.464339 -10.558836 26.546511 -6.244718 179.989691 75.748229 0.007576 139.794281 19.127511 -44.753138 -47.336835 6.35748 -76.691576 -125.347222 56.788235 -152.345468 -179.995673 75.748229 -0.003806 -98.043944 -45.964112 159.103387 152.621873 -29.341908 90.346774 111.253675 54.911599 160.617697
1.6511999999999998 78.904 -0.5171 37.332028 13.651928 31.488565 -12.441095 21.322863 -148.19186 7.485802 3.591696 167.614223 3.326516 29.350456 -166.319501 24.94729 31.18903 -174.225713 -0.001592 0.0 -0.002564 -0.001322 -0.0 0.003083 -151.760533 15.630018 157.120758 167.873651 -27.059323 -170.398277 -4.866426 1.257161 93.233873 -5.858402 21.1329 0.710087 -172.651382 -10.328761 89.93069 -167.606123 -5.74604 88.814231 13.104825 -23.435692 -5.323674 -167.313736 -25.624507 109.753382 -1.329958 3.785456 0.766641 -3.506769 18.080784 3.486446 -144.839549 11.461342 177.227509 -123.566241 -71.525624 -144.461149 -22.765863 -35.810884 -21.878056 -73.101203 -54.701149 -73.509781 88.837697 67.968992 -92.0248 -66.316893 -14.110602 -66.397101 -123.611845 73.86798 -129.40394 175.617843 5.14883 -142.313049 -51.397902 -41.359944 -13.046859 103.895842 34.945762 -77.141911 -17.010066 -30.571142 5.903171 -13.429119 2.176754 1.474835 164.015888 -17.279224 -144.552551 32.466688 53.629243 -27.323806 -0.004521 1.25497 -0.394466 156.666057 -30.409359 -175.418206 6.331691 -14.184692 5.949444 147.671267 13.727918 144.138917 0.01708 -0.000723 0.014755 -51.393796 -42.307507 -132.355552 -37.317007 -14.985455 91.145784 -80.630239 -11.059746 17.478382 0.005215 0.001093 0.003372 130.700372 -15.757961 -107.229369 153.565832 -37.369468 11.545769 -108.931262 39.114804 20.053654
1.7816999999999998 77.5483 -0.1777 34.563645 11.828598 29.564988 -10.329743 24.58676 -73.591625 7.631435 -8.420046 92.750082 13.790592 17.120727 83.298842 -28.015128 19.348132 -49.305631 -0.001341 -0.0 0.00116 0.003814 0.0 0.001393 4.190775 -53.84753 -10.68464 -127.224411 -13.088057 178.818938 36.153227 41.219475 -152.841814 173.764492 -2.854302 145.871298 -159.332584 2.911844 88.735032 -117.405553 7.186835 54.711796 -152.836843 -19.91584 121.579557 2.418473 17.338755 -6.172319 3.421214 -10.432512 -1.668926 33.069617 -63.763254 9.216959 -0.00097 -0.11401 -0.035983 1.123497 50.611328 11.189875 -137.653571 -8.014456 -134.915381 -113.1674 -41.493369 -111.92317 158.369035 -28.739595 -166.680205 -136.669175 -0.648731 179.399737 -169.572131 66.106048 -81.189536 179.21564 -4.226171 -143.207407 0.798217 0.787728 -0.127897 -3.247865 -3.968343 2.092484 93.126835 40.327872 -78.377288 -5.64351 0.780434 5.316091 13.947557 30.755023 -10.060607 -178.939652 -51.278755 -140.641128 0.002607 -0.194299 0.060465 154.369189 -64.115747 178.55203 1.773258 -4.42994 1.646357 147.575073 12.762742 143.951826 179.997643 75.749753 0.002571 144.583713 15.452067 -37.430039 -38.57814 22.537125 121.82798 -5.9622 -10.442864 -65.506631 179.988899 75.748545 0.007268 -101.475654 -35.971287 -43.997141 -133.734227 17.055318 108.661079 -102.619906 -7.327758 9.133103
2.0063 76.229 0.5105000000000001 31.429936 9.990245 27.470007 -10.112784 24.052722 -139.954329 9.029286 2.325358 158.99675 5.335769 10.637994 20.993099 -19.398252 -12.51629 8.890186 0.001542 -0.0 -0.00546 0.001801 0.0 0.00012 -132.84057 52.493505 136.784587 -31.041421 5.301141 18.54639 33.76066 43.068944 -152.209625 172.966257 -5.199733 145.706289 -170.034549 -7.718223 89.940697 3.455012 -55.112744 10.632509 -11.940508 16.638586 7.85815 -178.108752 -32.541895 107.176398 -163.599348 -15.937894 144.418897 -12.034294 33.866149 9.793343 -145.10211 -1.387965 -178.69094 2.431198 -44.80778 -18.272465 -139.072546 -4.759058 -136.249229 -158.253788 46.029109 -146.774287 -4.14975 -41.447465 7.986318 -93.272643 42.774988 61.214741 162.581946 61.40289 -54.064656 -177.647362 -15.245996 -143.41913 3.984244 3.883948 -0.743212 -93.829457 -80.644649 -22.887852 105.782697 35.530631 -89.470809 3.920402 16.871241 2.489728 19.281272 38.011664 -14.609534 168.487895 -21.28502 -144.272357 -0.003052 0.362779 -0.113754 -6.497295 31.795756 -5.138162 16.61252 -29.602104 15.871137 46.160038 -51.878499 46.925585 -179.966495 75.750163 -0.024962 146.741366 15.486069 -55.095953 -56.991808 9.589562 -83.41636 -71.424285 42.000561 -179.820569 -6e-05 -0.000523 -0.001145 118.09847 -21.911838 12.877957 -130.866313 0.639819 112.085133 82.554656 -53.119705 -18.735132
2.4106 75.2488 0.988 28.65871 8.210302 23.524858 -9.467825 29.936214 -35.052739 2.374899 -12.847431 54.765755 13.89691 22.857751 110.28696 -23.059649 30.046294 -73.309761 -0.000697 0.0 -0.002629 -0.000697 0.0 -0.002629 -3.143436 15.475743 3.909029 50.973409 -18.89439 39.032951 175.918982 -27.32489 45.765563 167.493609 -21.214339 143.405354 13.125064 -13.077397 -0.523526 -131.8895 -21.423834 118.851628 -142.957454 -2.196278 117.458431 -3.405216 23.317873 -3.626036 14.84074 -44.729683 -2.761465 104.636876 -78.6134 75.216713 0.004263 1.849774 0.580676 3.383711 44.023902 8.556779 -19.89514 -33.131832 -19.073403 -148.599495 18.027026 -144.894017 4.474262 20.495941 -5.457438 105.588162 -20.678147 -174.628578 -173.722714 61.771839 90.612277 10.572865 11.515988 0.990235 42.198171 30.877664 -18.079909 -19.675588 -18.378397 -10.472227 167.74439 -45.29842 -121.851516 136.080697 25.842808 -111.129009 -3.084999 -9.372798 1.525846 2.910224 16.542655 -3.087582 0.227827 10.575437 -3.353342 150.177251 41.6037 -164.112832 16.044003 -28.937419 15.318096 157.846782 51.313147 149.614517 -179.999921 75.751981 -3.4e-05 147.85996 14.424539 -165.095725 -1.033636 -59.044071 -38.253062 -163.63318 6.44937 154.182374 -179.985503 75.749243 -0.012276 -115.643454 -25.756192 130.557739 142.57226 -18.721137 70.650894 139.85807 33.69286 150.724367
